<?xml version="1.0" standalone="no"?>
<!DOCTYPE svg PUBLIC "-//W3C//DTD SVG 20010904//EN" "http://www.w3.org/TR/2001/REC-SVG-20010904/DTD/svg10.dtd">
<svg xmlns="http://www.w3.org/2000/svg" version="1.0" width="10243" height="5194" viewBox="0 0 10243.000000 5194.000000" preserveAspectRatio="xMidYMid meet">

<g transform="translate(0.000000,5194.000000) scale(0.100000,-0.100000)" fill="#000000" stroke="none">
<path d="M50060 51924 c-1538 -47 -2818 -284 -4054 -750 -552 -208 -1251 -549 -1801 -879 -188 -112 -624 -404 -810 -541 -784 -579 -1433 -1220 -2064 -2039 -1379 -1788 -2235 -3990 -2461 -6330 -49 -514 -63 -972 -57 -1868 5 -720 10 -872 42 -1252 85 -1007 280 -1944 609 -2930 421 -1258 1010 -2384 1798 -3433 987 -1313 2132 -2286 3602 -3060 1411 -743 2896 -1154 4646 -1286 732 -56 1604 -56 2335 0 1904 144 3541 644 5030 1537 1182 708 2187 1641 2977 2763 709 1006 1216 2144 1503 3368 19 82 35 151 35 152 0 2 -1376 4 -3058 4 l-3058 0 -24 -57 c-38 -93 -125 -265 -194 -381 -447 -752 -1310 -1407 -2267 -1720 -512 -168 -1054 -260 -1714 -292 -758 -36 -1520 31 -2165 191 -655 163 -1198 416 -1695 789 -846 635 -1432 1519 -1789 2700 -123 404 -245 953 -291 1308 l-7 52 8341 0 8341 0 0 1268 c0 1430 -7 1681 -61 2277 -181 1998 -840 3931 -1892 5550 -864 1329 -2039 2475 -3412 3327 -1373 852 -3014 1355 -4870 1493 -412 30 -1168 50 -1515 39z m950 -5429 c342 -30 671 -85 959 -161 1634 -429 2761 -1634 3292 -3517 82 -291 169 -689 212 -969 l14 -88 -5154 0 c-4351 0 -5153 2 -5153 14 0 7 16 96 36 197 282 1457 898 2633 1774 3388 825 711 1798 1076 3070 1151 207 12 733 4 950 -15z"/>
<path d="M10 51132 c0 -6 3909 -14584 6101 -22754 l21 -78 4622 0 4622 0 1529 7520 c842 4136 1532 7520 1535 7520 3 0 770 -3383 1705 -7518 l1700 -7517 4644 0 4644 0 2748 11410 c1512 6276 2749 11413 2749 11418 0 4 -1376 6 -3057 5 l-3058 -3 -1925 -8647 -1925 -8648 -436 0 -437 0 -16 73 c-9 39 -821 3753 -1806 8252 -984 4499 -1792 8190 -1795 8203 l-5 22 -3643 0 -3642 0 -1561 -8273 -1560 -8272 -450 -3 -449 -2 -2154 8617 c-1185 4740 -2158 8633 -2163 8651 l-9 32 -3264 0 c-1796 0 -3265 -4 -3265 -8z"/>
<path d="M62520 14745 l0 -14045 1840 0 1840 0 0 4790 0 4790 1374 0 1374 0 3866 -4790 3867 -4790 2125 0 c1168 0 2124 2 2124 5 0 3 -2165 2645 -4810 5871 -2646 3225 -4815 5873 -4821 5883 -10 15 477 584 3763 4387 2076 2404 3778 4375 3782 4382 6 9 -430 12 -1926 12 l-1933 0 -4384 -5100 c-2412 -2805 -4388 -5100 -4393 -5100 -4 0 -8 3994 -8 8875 l0 8875 -1840 0 -1840 0 0 -14045z"/>
<path d="M92370 21933 c-1616 -25 -3044 -332 -4269 -918 -1060 -506 -1964 -1158 -2705 -1950 -937 -1002 -1700 -2293 -2159 -3655 -354 -1048 -569 -2163 -644 -3345 -25 -392 -25 -1791 0 -2175 75 -1155 280 -2222 632 -3284 543 -1638 1542 -3187 2720 -4220 607 -532 1239 -953 2005 -1337 363 -181 554 -264 916 -399 668 -249 1390 -423 2194 -530 943 -126 2063 -146 3045 -54 2192 205 4103 997 5503 2283 1220 1119 2029 2533 2411 4211 22 96 43 192 47 212 l6 38 -1726 0 -1725 0 -10 -37 c-5 -21 -19 -76 -31 -123 -99 -391 -324 -847 -603 -1218 -313 -416 -794 -862 -1285 -1191 -652 -437 -1432 -735 -2308 -885 -511 -87 -930 -120 -1534 -120 -843 -1 -1475 77 -2170 266 -1217 331 -2273 1050 -3054 2082 -778 1026 -1289 2473 -1461 4131 -12 120 -45 525 -45 558 0 4 3668 7 8151 7 l8151 0 -5 1127 c-5 1146 -6 1205 -47 1643 -130 1399 -518 2764 -1131 3981 -442 876 -977 1610 -1681 2305 -410 405 -817 739 -1308 1076 -1283 879 -2821 1368 -4695 1492 -313 21 -862 34 -1185 29z m900 -3242 c1614 -128 2797 -631 3755 -1596 954 -961 1537 -2279 1770 -3997 l6 -48 -6265 0 c-3446 0 -6266 2 -6266 5 0 30 114 562 156 730 265 1048 661 1915 1203 2635 638 846 1484 1497 2415 1857 629 243 1352 387 2146 427 144 7 946 -3 1080 -13z"/>
<path d="M12410 21853 c-1623 -59 -2910 -494 -3960 -1337 -370 -297 -735 -676 -1036 -1076 -564 -749 -1001 -1668 -1300 -2735 -20 -71 -42 -150 -49 -175 -11 -38 -14 347 -14 2333 l-1 2377 -1460 0 -1460 0 0 -10270 0 -10270 1845 0 1845 0 0 6313 c0 4056 4 6373 10 6482 97 1659 630 2897 1631 3789 683 609 1473 974 2439 1125 679 107 1493 92 2135 -39 371 -75 786 -216 1090 -367 693 -347 1270 -894 1670 -1583 341 -586 563 -1289 664 -2095 60 -479 55 131 58 -7067 l3 -6558 1845 0 1845 0 0 6254 c0 4105 3 6323 10 6457 6 112 17 281 25 374 140 1578 738 2802 1780 3645 869 702 1941 1050 3233 1050 850 0 1576 -150 2211 -456 405 -195 713 -411 1035 -724 809 -788 1270 -1894 1386 -3325 28 -353 30 -749 30 -6917 l0 -6358 1840 0 1840 0 0 6128 c0 5928 -2 6317 -30 6812 -136 2358 -700 4268 -1659 5615 -690 970 -1609 1694 -2681 2112 -852 333 -1799 492 -2930 493 -1435 0 -2594 -258 -3585 -801 -923 -505 -1709 -1274 -2297 -2249 -325 -538 -635 -1239 -823 -1860 -26 -85 -51 -161 -55 -169 -5 -9 -13 6 -24 45 -359 1271 -932 2332 -1696 3139 -1044 1103 -2397 1715 -4110 1859 -364 31 -918 43 -1300 29z"/>
<path d="M45185 21463 c-1294 -17 -2391 -72 -3830 -189 -170 -13 -320 -27 -332 -30 l-23 -4 0 -1610 c0 -886 3 -1610 8 -1610 4 0 81 7 172 15 319 28 927 64 1415 85 361 15 2046 69 3110 100 998 29 2257 38 2585 20 801 -45 1457 -205 2005 -489 1053 -545 1667 -1495 1850 -2862 40 -293 47 -417 52 -916 l5 -502 -2918 -4 c-2058 -3 -2972 -7 -3099 -15 -99 -7 -279 -19 -400 -27 -2051 -146 -3741 -696 -4945 -1610 -451 -343 -861 -766 -1176 -1215 -547 -780 -885 -1734 -998 -2820 -36 -343 -41 -462 -41 -925 0 -480 7 -632 46 -980 148 -1333 595 -2429 1375 -3370 138 -166 521 -549 689 -689 897 -745 2010 -1240 3325 -1481 900 -164 1939 -215 2885 -140 1329 106 2447 458 3370 1063 488 319 877 663 1241 1097 201 241 344 441 541 760 238 385 490 949 664 1485 l54 165 3 -2032 2 -2033 1460 0 1461 0 -4 6753 c-3 4931 -7 6806 -15 6952 -44 754 -103 1258 -212 1805 -359 1793 -1154 3044 -2480 3907 -1244 808 -3092 1255 -5554 1343 -237 9 -1750 11 -2291 3z m7012 -12100 c-4 -1445 -3 -1414 -58 -1848 -125 -995 -391 -1753 -835 -2386 -380 -541 -864 -989 -1414 -1308 -590 -344 -1454 -609 -2275 -700 -332 -36 -516 -44 -914 -38 -687 11 -1218 80 -1732 228 -724 207 -1263 513 -1735 984 -565 564 -867 1197 -980 2053 -21 159 -30 655 -15 842 59 752 293 1382 720 1940 757 989 1944 1511 3571 1569 113 4 1435 9 2938 9 l2733 2 -4 -1347z"/>
</g>
</svg>